<?xml version="1.0" encoding="UTF-8"?>
<svg id="b" data-name="Layer 2" xmlns="http://www.w3.org/2000/svg" viewBox="0 0 368 368">
  <defs>
    <style>
      .d {
        fill: #161a1d;
      }
    </style>
  </defs>
  <g id="c" data-name="Layer 1">
    <g>
      <path class="d" d="M352,10c3.31,0,6,2.69,6,6V352c0,3.31-2.69,6-6,6H16c-3.31,0-6-2.69-6-6V16c0-3.31,2.69-6,6-6H352m0-10H16C7.16,0,0,7.16,0,16V352c0,8.84,7.16,16,16,16H352c8.84,0,16-7.16,16-16V16c0-8.84-7.16-16-16-16h0Z"/>
      <path class="d" d="M65.68,169.2c-8.67,0-16.87-1.23-24.6-3.7-7.73-2.47-13.8-5.57-18.2-9.3l6.4-11.2c4.27,3.2,9.73,5.97,16.4,8.3,6.67,2.33,13.67,3.5,21,3.5,10,0,17.2-1.57,21.6-4.7,4.4-3.13,6.6-7.3,6.6-12.5,0-3.87-1.23-6.9-3.7-9.1-2.47-2.2-5.7-3.87-9.7-5-4-1.13-8.47-2.1-13.4-2.9-4.93-.8-9.83-1.73-14.7-2.8-4.87-1.07-9.3-2.63-13.3-4.7-4-2.07-7.23-4.9-9.7-8.5-2.47-3.6-3.7-8.4-3.7-14.4s1.6-10.87,4.8-15.4c3.2-4.53,7.9-8.1,14.1-10.7,6.2-2.6,13.77-3.9,22.7-3.9,6.8,0,13.6,.9,20.4,2.7,6.8,1.8,12.54,4.01,16.94,6.94l-6.34,11.56c-4.67-3.2-9.67-5.5-15-6.9-5.33-1.4-10.67-2.1-16-2.1-9.47,0-16.43,1.63-20.9,4.9-4.47,3.27-6.7,7.43-6.7,12.5,0,4,1.23,7.13,3.7,9.4,2.47,2.27,5.73,4.03,9.8,5.3,4.07,1.27,8.53,2.3,13.4,3.1,4.87,.8,9.73,1.77,14.6,2.9,4.87,1.13,9.33,2.67,13.4,4.6,4.07,1.93,7.33,4.67,9.8,8.2,2.47,3.53,3.7,8.17,3.7,13.9,0,6.13-1.7,11.43-5.1,15.9-3.4,4.47-8.33,7.93-14.8,10.4-6.47,2.47-14.3,3.7-23.5,3.7Z"/>
      <path class="d" d="M99.28,83.4v-14.94h65v14.94H99.28Zm46.82,93.06c-9.87,0-17.47-2.67-22.8-8-5.33-5.33-8-12.87-8-22.6V47.26h14.2v97.8c0,6.13,1.57,10.87,4.7,14.2,3.13,3.33,7.63,5,13.5,5,6.27,0,11.47-1.8,15.6-5.4l5,10.2c-2.8,2.53-6.17,4.4-10.1,5.6-3.93,1.2-7.97,1.8-12.1,1.8Z"/>
      <path class="d" d="M161.94,172.5V68.5h13.6v28.6l-1.4-5c2.93-8,7.87-14.1,14.8-18.3,6.93-4.2,15.53-6.3,25.8-6.3v13.8c-.53,0-1.07-.03-1.6-.1-.53-.07-1.07-.1-1.6-.1-11.07,0-19.73,3.37-26,10.1-6.27,6.73-9.4,16.3-9.4,28.7v52.6h-14.2Z"/>
      <path class="d" d="M221.94,64.3c-2.93,0-5.4-1-7.4-3s-3-4.4-3-7.2,1-5.17,3-7.1c2-1.93,4.47-2.9,7.4-2.9s5.4,.93,7.4,2.8c2,1.87,3,4.2,3,7s-.97,5.4-2.9,7.4c-1.93,2-4.43,3-7.5,3Zm-7.2,108.2V67.5h14.2v105h-14.2Z"/>
      <path class="d" d="M159.7,191.48c8.53,0,15.97,1.63,22.3,4.9,6.33,3.27,11.27,8.23,14.8,14.9,3.53,6.67,5.3,15.07,5.3,25.2v61h-14.2v-59.6c0-11.07-2.63-19.43-7.9-25.1-5.27-5.67-12.7-8.5-22.3-8.5-7.2,0-13.43,1.5-18.7,4.5-5.27,3-9.33,7.33-12.2,13-2.87,5.67-4.3,12.5-4.3,20.5v55.2h-14.2v-59.6c0-11.07-2.67-19.43-8-25.1-5.33-5.67-12.8-8.5-22.4-8.5-7.07,0-13.27,1.5-18.6,4.5-5.33,3-9.43,7.33-12.3,13-2.87,5.67-4.3,12.5-4.3,20.5v55.2h-14.2v-105h13.6v28.4l-2.2-5c3.2-7.6,8.37-13.57,15.5-17.9,7.13-4.33,15.57-6.5,25.3-6.5,10.27,0,19,2.57,26.2,7.7,7.2,5.13,11.87,12.83,14,23.1l-5.6-2.2c3.07-8.53,8.5-15.43,16.3-20.7,7.8-5.27,17.17-7.9,28.1-7.9Z"/>
      <path class="d" d="M221.75,280.7c2.93,0,5.4,1,7.4,3s3,4.4,3,7.2-1,5.17-3,7.1c-2,1.93-4.47,2.9-7.4,2.9s-5.4-.93-7.4-2.8c-2-1.87-3-4.2-3-7s.97-5.4,2.9-7.4c1.93-2,4.43-3,7.5-3Zm7.2-108.2v105h-14.2v-105h14.2Z"/>
      <path class="d" d="M293.32,191.48c8.53,0,16.03,1.63,22.5,4.9,6.46,3.27,11.53,8.23,15.2,14.9,3.67,6.67,5.5,15.07,5.5,25.2v61h-14.2v-59.6c0-11.07-2.77-19.43-8.3-25.1-5.53-5.67-13.3-8.5-23.3-8.5-7.47,0-13.97,1.5-19.5,4.5-5.53,3-9.8,7.33-12.8,13-3,5.67-4.5,12.5-4.5,20.5v55.2h-14.2v-105h13.6v28.8l-2.2-5.4c3.33-7.6,8.67-13.57,16-17.9,7.33-4.33,16.07-6.5,26.2-6.5Z"/>
    </g>
  </g>
</svg>